<svg id="Design" xmlns="http://www.w3.org/2000/svg" xmlns:xlink="http://www.w3.org/1999/xlink" viewBox="0 0 1280 720"><defs><style>.cls-1,.cls-10,.cls-11,.cls-12,.cls-13,.cls-14,.cls-15,.cls-16,.cls-17,.cls-18,.cls-19,.cls-2,.cls-20,.cls-21,.cls-22,.cls-23,.cls-24,.cls-25,.cls-26,.cls-27,.cls-28,.cls-29,.cls-3,.cls-30,.cls-31,.cls-32,.cls-33,.cls-34,.cls-35,.cls-36,.cls-37,.cls-38,.cls-39,.cls-4,.cls-40,.cls-41,.cls-42,.cls-43,.cls-44,.cls-45,.cls-46,.cls-47,.cls-48,.cls-49,.cls-5,.cls-50,.cls-51,.cls-52,.cls-53,.cls-54,.cls-55,.cls-56,.cls-57,.cls-58,.cls-59,.cls-6,.cls-60,.cls-61,.cls-62,.cls-63,.cls-64,.cls-65,.cls-66,.cls-67,.cls-68,.cls-69,.cls-7,.cls-70,.cls-71,.cls-72,.cls-73,.cls-8,.cls-9{fill:none;stroke-miterlimit:10;}.cls-1{stroke:url(#linear-gradient);}.cls-2{stroke:url(#linear-gradient-2);}.cls-3{stroke:url(#linear-gradient-3);}.cls-4{stroke:url(#linear-gradient-4);}.cls-5{stroke:url(#linear-gradient-5);}.cls-6{stroke:url(#linear-gradient-6);}.cls-7{stroke:url(#linear-gradient-7);}.cls-8{stroke:url(#linear-gradient-8);}.cls-9{stroke:url(#linear-gradient-9);}.cls-10{stroke:url(#linear-gradient-10);}.cls-11{stroke:url(#linear-gradient-11);}.cls-12{stroke:url(#linear-gradient-12);}.cls-13{stroke:url(#linear-gradient-13);}.cls-14{stroke:url(#linear-gradient-14);}.cls-15{stroke:url(#linear-gradient-15);}.cls-16{stroke:url(#linear-gradient-16);}.cls-17{stroke:url(#linear-gradient-17);}.cls-18{stroke:url(#linear-gradient-18);}.cls-19{stroke:url(#linear-gradient-19);}.cls-20{stroke:url(#linear-gradient-20);}.cls-21{stroke:url(#linear-gradient-21);}.cls-22{stroke:url(#linear-gradient-22);}.cls-23{stroke:url(#linear-gradient-23);}.cls-24{stroke:url(#linear-gradient-24);}.cls-25{stroke:url(#linear-gradient-25);}.cls-26{stroke:url(#linear-gradient-26);}.cls-27{stroke:url(#linear-gradient-27);}.cls-28{stroke:url(#linear-gradient-28);}.cls-29{stroke:url(#linear-gradient-29);}.cls-30{stroke:url(#linear-gradient-30);}.cls-31{stroke:url(#linear-gradient-31);}.cls-32{stroke:url(#linear-gradient-32);}.cls-33{stroke:url(#linear-gradient-33);}.cls-34{stroke:url(#linear-gradient-34);}.cls-35{stroke:url(#linear-gradient-35);}.cls-36{stroke:url(#linear-gradient-36);}.cls-37{stroke:url(#linear-gradient-37);}.cls-38{stroke:url(#linear-gradient-38);}.cls-39{stroke:url(#linear-gradient-39);}.cls-40{stroke:url(#linear-gradient-40);}.cls-41{stroke:url(#linear-gradient-41);}.cls-42{stroke:url(#linear-gradient-42);}.cls-43{stroke:url(#linear-gradient-43);}.cls-44{stroke:url(#linear-gradient-44);}.cls-45{stroke:url(#linear-gradient-45);}.cls-46{stroke:url(#linear-gradient-46);}.cls-47{stroke:url(#linear-gradient-47);}.cls-48{stroke:url(#linear-gradient-48);}.cls-49{stroke:url(#linear-gradient-49);}.cls-50{stroke:url(#linear-gradient-50);}.cls-51{stroke:url(#linear-gradient-51);}.cls-52{stroke:url(#linear-gradient-52);}.cls-53{stroke:url(#linear-gradient-53);}.cls-54{stroke:url(#linear-gradient-54);}.cls-55{stroke:url(#linear-gradient-55);}.cls-56{stroke:url(#linear-gradient-56);}.cls-57{stroke:url(#linear-gradient-57);}.cls-58{stroke:url(#linear-gradient-58);}.cls-59{stroke:url(#linear-gradient-59);}.cls-60{stroke:url(#linear-gradient-60);}.cls-61{stroke:url(#linear-gradient-61);}.cls-62{stroke:url(#linear-gradient-62);}.cls-63{stroke:url(#linear-gradient-63);}.cls-64{stroke:url(#linear-gradient-64);}.cls-65{stroke:url(#linear-gradient-65);}.cls-66{stroke:url(#linear-gradient-66);}.cls-67{stroke:url(#linear-gradient-67);}.cls-68{stroke:url(#linear-gradient-68);}.cls-69{stroke:url(#linear-gradient-69);}.cls-70{stroke:url(#linear-gradient-70);}.cls-71{stroke:url(#linear-gradient-71);}.cls-72{stroke:url(#linear-gradient-72);}.cls-73{stroke:url(#linear-gradient-73);}</style><linearGradient id="linear-gradient" x1="640" y1="720" x2="640" y2="718.78" gradientUnits="userSpaceOnUse"><stop offset="0" stop-color="#ef4d72"/><stop offset="1" stop-color="#ed384d"/></linearGradient><linearGradient id="linear-gradient-2" x1="640" y1="711.06" x2="640" y2="707.64" xlink:href="#linear-gradient"/><linearGradient id="linear-gradient-3" x1="640" y1="706.39" x2="640" y2="695.05" xlink:href="#linear-gradient"/><linearGradient id="linear-gradient-4" x1="640" y1="701.31" x2="640" y2="681.3" xlink:href="#linear-gradient"/><linearGradient id="linear-gradient-5" x1="640" y1="696.79" x2="640" y2="666.49" xlink:href="#linear-gradient"/><linearGradient id="linear-gradient-6" x1="640" y1="692.65" x2="640" y2="650.75" xlink:href="#linear-gradient"/><linearGradient id="linear-gradient-7" x1="640.01" y1="688.83" x2="640.01" y2="634.31" xlink:href="#linear-gradient"/><linearGradient id="linear-gradient-8" x1="640.01" y1="688.08" x2="640.01" y2="618.31" xlink:href="#linear-gradient"/><linearGradient id="linear-gradient-9" x1="640.01" y1="686.67" x2="640.01" y2="601.78" xlink:href="#linear-gradient"/><linearGradient id="linear-gradient-10" x1="640.01" y1="685.33" x2="640.01" y2="585.39" xlink:href="#linear-gradient"/><linearGradient id="linear-gradient-11" x1="640.01" y1="683.82" x2="640.01" y2="569.41" xlink:href="#linear-gradient"/><linearGradient id="linear-gradient-12" x1="640.01" y1="681.86" x2="640.01" y2="552.49" xlink:href="#linear-gradient"/><linearGradient id="linear-gradient-13" x1="640.02" y1="679.21" x2="640.02" y2="538.1" xlink:href="#linear-gradient"/><linearGradient id="linear-gradient-14" x1="640.02" y1="675.59" x2="640.02" y2="524.95" xlink:href="#linear-gradient"/><linearGradient id="linear-gradient-15" x1="640.02" y1="670.73" x2="640.02" y2="513.3" xlink:href="#linear-gradient"/><linearGradient id="linear-gradient-16" x1="640.02" y1="664.39" x2="640.02" y2="503.42" xlink:href="#linear-gradient"/><linearGradient id="linear-gradient-17" x1="640.02" y1="656.07" x2="640.02" y2="495.47" xlink:href="#linear-gradient"/><linearGradient id="linear-gradient-18" x1="640.02" y1="646.28" x2="640.02" y2="489.09" xlink:href="#linear-gradient"/><linearGradient id="linear-gradient-19" x1="640.02" y1="635.41" x2="640.02" y2="484.08" xlink:href="#linear-gradient"/><linearGradient id="linear-gradient-20" x1="640.02" y1="623.63" x2="640.02" y2="480.27" xlink:href="#linear-gradient"/><linearGradient id="linear-gradient-21" x1="640.01" y1="611.11" x2="640.01" y2="477.48" xlink:href="#linear-gradient"/><linearGradient id="linear-gradient-22" x1="640.01" y1="598.03" x2="640.01" y2="477.28" xlink:href="#linear-gradient"/><linearGradient id="linear-gradient-23" x1="640.01" y1="584.56" x2="640.01" y2="476.06" xlink:href="#linear-gradient"/><linearGradient id="linear-gradient-24" x1="640.01" y1="570.88" x2="640.01" y2="475.36" xlink:href="#linear-gradient"/><linearGradient id="linear-gradient-25" x1="640.01" y1="557.16" x2="640.01" y2="475.54" xlink:href="#linear-gradient"/><linearGradient id="linear-gradient-26" x1="640.01" y1="548.05" x2="640.01" y2="474.41" xlink:href="#linear-gradient"/><linearGradient id="linear-gradient-27" x1="640.01" y1="547.02" x2="640.01" y2="473.91" xlink:href="#linear-gradient"/><linearGradient id="linear-gradient-28" x1="640" y1="545.84" x2="640" y2="473.14" xlink:href="#linear-gradient"/><linearGradient id="linear-gradient-29" x1="640" y1="544.4" x2="640" y2="471.94" xlink:href="#linear-gradient"/><linearGradient id="linear-gradient-30" x1="640" y1="542.55" x2="640" y2="470.19" xlink:href="#linear-gradient"/><linearGradient id="linear-gradient-31" x1="640" y1="540.13" x2="640" y2="467.79" xlink:href="#linear-gradient"/><linearGradient id="linear-gradient-32" x1="640" y1="537" x2="640" y2="464.63" xlink:href="#linear-gradient"/><linearGradient id="linear-gradient-33" x1="640" y1="532.99" x2="640" y2="460.63" xlink:href="#linear-gradient"/><linearGradient id="linear-gradient-34" x1="640" y1="528" x2="640" y2="455.71" xlink:href="#linear-gradient"/><linearGradient id="linear-gradient-35" x1="639.94" y1="522.22" x2="639.94" y2="449.84" xlink:href="#linear-gradient"/><linearGradient id="linear-gradient-36" x1="639.74" y1="516.29" x2="639.74" y2="443.89" xlink:href="#linear-gradient"/><linearGradient id="linear-gradient-37" x1="639.4" y1="510.25" x2="639.4" y2="436.73" xlink:href="#linear-gradient"/><linearGradient id="linear-gradient-38" x1="638.93" y1="504.1" x2="638.93" y2="429.18" xlink:href="#linear-gradient"/><linearGradient id="linear-gradient-39" x1="638.33" y1="497.85" x2="638.33" y2="421.25" xlink:href="#linear-gradient"/><linearGradient id="linear-gradient-40" x1="637.62" y1="491.54" x2="637.62" y2="412.95" xlink:href="#linear-gradient"/><linearGradient id="linear-gradient-41" x1="636.81" y1="485.17" x2="636.81" y2="404.3" xlink:href="#linear-gradient"/><linearGradient id="linear-gradient-42" x1="635.89" y1="478.76" x2="635.89" y2="395.34" xlink:href="#linear-gradient"/><linearGradient id="linear-gradient-43" x1="634.89" y1="472.32" x2="634.89" y2="386.09" xlink:href="#linear-gradient"/><linearGradient id="linear-gradient-44" x1="633.8" y1="465.88" x2="633.8" y2="376.61" xlink:href="#linear-gradient"/><linearGradient id="linear-gradient-45" x1="632.64" y1="459.39" x2="632.64" y2="367.14" xlink:href="#linear-gradient"/><linearGradient id="linear-gradient-46" x1="631.42" y1="452.95" x2="631.42" y2="357.31" xlink:href="#linear-gradient"/><linearGradient id="linear-gradient-47" x1="630.14" y1="446.56" x2="630.14" y2="347.37" xlink:href="#linear-gradient"/><linearGradient id="linear-gradient-48" x1="628.81" y1="440.22" x2="628.81" y2="337.33" xlink:href="#linear-gradient"/><linearGradient id="linear-gradient-49" x1="627.43" y1="433.94" x2="627.43" y2="327.25" xlink:href="#linear-gradient"/><linearGradient id="linear-gradient-50" x1="626.02" y1="427.6" x2="626.02" y2="317.16" xlink:href="#linear-gradient"/><linearGradient id="linear-gradient-51" x1="624.58" y1="421.5" x2="624.58" y2="307.09" xlink:href="#linear-gradient"/><linearGradient id="linear-gradient-52" x1="623.11" y1="415.52" x2="623.11" y2="297.09" xlink:href="#linear-gradient"/><linearGradient id="linear-gradient-53" x1="621.64" y1="409.65" x2="621.64" y2="287.19" xlink:href="#linear-gradient"/><linearGradient id="linear-gradient-54" x1="620.15" y1="404.06" x2="620.15" y2="276.76" xlink:href="#linear-gradient"/><linearGradient id="linear-gradient-55" x1="618.68" y1="398.46" x2="618.68" y2="267.06" xlink:href="#linear-gradient"/><linearGradient id="linear-gradient-56" x1="617.21" y1="393.06" x2="617.21" y2="257.58" xlink:href="#linear-gradient"/><linearGradient id="linear-gradient-57" x1="615.76" y1="387.85" x2="615.76" y2="248.33" xlink:href="#linear-gradient"/><linearGradient id="linear-gradient-58" x1="614.34" y1="384.93" x2="614.34" y2="239.39" xlink:href="#linear-gradient"/><linearGradient id="linear-gradient-59" x1="612.96" y1="383.93" x2="612.96" y2="230.73" xlink:href="#linear-gradient"/><linearGradient id="linear-gradient-60" x1="611.61" y1="383.05" x2="611.61" y2="222.41" xlink:href="#linear-gradient"/><linearGradient id="linear-gradient-61" x1="610.32" y1="382.99" x2="610.32" y2="214.48" xlink:href="#linear-gradient"/><linearGradient id="linear-gradient-62" x1="609.08" y1="381.96" x2="609.08" y2="207.04" xlink:href="#linear-gradient"/><linearGradient id="linear-gradient-63" x1="607.91" y1="382" x2="607.91" y2="199.98" xlink:href="#linear-gradient"/><linearGradient id="linear-gradient-64" x1="606.81" y1="381.61" x2="606.81" y2="193.4" xlink:href="#linear-gradient"/><linearGradient id="linear-gradient-65" x1="605.8" y1="381.3" x2="605.8" y2="187.34" xlink:href="#linear-gradient"/><linearGradient id="linear-gradient-66" x1="604.87" y1="381.07" x2="604.87" y2="181.84" xlink:href="#linear-gradient"/><linearGradient id="linear-gradient-67" x1="604.04" y1="380.33" x2="604.04" y2="177.03" xlink:href="#linear-gradient"/><linearGradient id="linear-gradient-68" x1="603.32" y1="380.22" x2="603.32" y2="172.74" xlink:href="#linear-gradient"/><linearGradient id="linear-gradient-69" x1="602.71" y1="380.18" x2="602.71" y2="169.12" xlink:href="#linear-gradient"/><linearGradient id="linear-gradient-70" x1="602.22" y1="380.21" x2="602.22" y2="166.2" xlink:href="#linear-gradient"/><linearGradient id="linear-gradient-71" x1="601.85" y1="380.3" x2="601.85" y2="164.01" xlink:href="#linear-gradient"/><linearGradient id="linear-gradient-72" x1="601.63" y1="380.45" x2="601.63" y2="162.59" xlink:href="#linear-gradient"/><linearGradient id="linear-gradient-73" x1="601.55" y1="380.65" x2="601.55" y2="161.98" xlink:href="#linear-gradient"/></defs><path class="cls-1" d="M0,719.5q640-.48,1280,0"/><path class="cls-2" d="M0,709.57c213.12-2.58,426.31,3.93,639.41-.75,97-2.13,193.92,1.52,290.89.71,116.47-1,233.24-1,349.7,0"/><path class="cls-3" d="M0,699.75c114.9-2,231.56,12.43,346.15,2.8,97.24-8.17,194.49.16,291.91-5.25s194.76,3.55,292.22,2.39c55.68-.66,111.36.91,167,1.51,60.92.67,121.82-2.13,182.69-1.45"/><path class="cls-4" d="M0,690.05c113.28-2.07,230.45,20.83,343.05,5.34,51.69-7.11,99.59-9.56,151.64-6.76a907.8,907.8,0,0,0,141.36-3.55c98.18-10,196,6.06,294.23,4.91,56.13-.66,112.27,1.79,168.39,2.91,60.59,1.2,120.86-3.33,181.33-2.85"/><path class="cls-5" d="M0,680.47c111.68-1.67,228.62,29.58,339.25,8.48,30.68-5.85,61-13.93,92.35-14.29,21.69-.25,43.19,1.54,64.77,3.38,46.72,4,90.94,1.67,137.14-5.74,99-15.87,197.57,9,296.77,8.12,56.73-.48,113.4,2.89,170.08,4.63,60.33,1.85,119.58-4.59,179.64-4.58"/><path class="cls-6" d="M0,671c110.71-1,225.46,38.33,334.89,12.08,33.25-8,66.55-19.5,101-20.44,21-.57,41.71,2.14,62.49,4.73,46,5.74,87.27,2.19,132.21-8.28C729.88,636,830.26,671.27,930.3,671c57.4-.17,114.69,4.17,172,6.62,30.12,1.29,60.54,2.79,90.67,1.37,29.2-1.38,57.69-7.62,87-8"/><path class="cls-7" d="M0,661.68c110.82,0,220.51,47.13,330.13,16,36-10.2,72.72-25.58,110.4-27.18,20.33-.86,40.09,2.77,60,6.21,45.42,7.84,83.29,2.82,126.75-11.08,98.87-31.62,202.57,15.94,303,16,58.15,0,116.12,5.59,174.14,8.81,30.17,1.67,61,4,91.14,1.84,28.45-2,55.74-9.9,84.4-10.63"/><path class="cls-8" d="M0,652.46c53,.57,102.38,12.28,153.78,23.4,23.24,5,46.65,9.21,70.38,11,35.8,2.76,66.6-3.2,101-14.25,38.77-12.47,79.31-32,120.36-34.29,19.7-1.1,38.38,3.37,57.4,7.75,44.79,10.31,79.35,3.54,121-14,45.81-19.35,90.09-14.26,138-5.39,56,10.34,111.19,25.31,168.47,25.77,59,.48,117.62,7.08,176.38,11.11,30.18,2.07,61.48,5.28,91.64,2.35,27.69-2.68,53.62-12.28,81.64-13.47"/><path class="cls-9" d="M0,643.37c51.59,1.14,98,14.94,147.22,28.45,22.11,6.07,44.47,11.1,67.31,13.42,37.79,3.84,69.64-4.64,105.47-17.43,41.46-14.81,86.12-38.59,130.51-41.54,19.2-1.28,36.61,3.91,54.74,9.32,44.06,13.13,75.82,4.18,115-17.05,44.91-24.3,88.87-16.89,137.2-6.46,57.25,12.35,113.88,30.38,172.88,31.32,59.78,1,119.14,8.61,178.67,13.46,30.13,2.45,62.06,6.66,92.14,2.88,27-3.39,51.39-14.72,78.82-16.37"/><path class="cls-10" d="M0,634.4c50.46,1.69,93.62,17.48,140.74,33.46,20.95,7.1,42.27,13,64.27,15.76,39.65,5,72.79-6.32,109.93-20.59,44.15-17,92.87-45.14,140.56-48.71,18.83-1.41,34.83,4.36,52.11,10.88,43.13,16.28,72.86,4.55,109.18-20,43.51-29.45,87.79-19.41,136.36-7.52C811.61,612,869.69,633,930.39,634.46s120.65,10.11,180.94,15.78c30,2.82,62.72,8,92.64,3.39,26.3-4.09,49.08-17.13,76-19.23"/><path class="cls-11" d="M0,625.55c49.62,2.19,89.48,19.8,134.53,38.25,19.83,8.11,40.13,14.76,61.37,18,41.29,6.3,76-8,114.19-23.59,26.67-10.84,53.1-22.31,79.85-33,21.92-8.72,46.45-20.69,70.33-22.62,18.63-1.5,33.15,4.68,49.58,12.38,42,19.68,70.55,4.48,103.6-22.89,41.66-34.51,86.86-21.74,135.55-8.54,59.56,16.15,119.08,40.19,181.41,42.06,61.41,1.85,122.1,11.56,183.11,18,29.87,3.15,63.43,9.39,93.13,3.88,25.7-4.76,46.77-19.44,73.35-22"/><path class="cls-12" d="M0,616.82c49.11,2.58,85.71,21.8,128.82,42.66,18.74,9.07,38.1,16.44,58.68,20.07,42.66,7.52,79.06-9.75,118.08-26.33,28.4-12.07,56.53-24.78,85-36.65,22.81-9.51,49-23.18,74.09-25.3,18.55-1.57,31.63,4.87,47.23,13.77,40.79,23.26,68.84,3.91,98.47-25.52C625.22,564.77,640.71,553,662.76,553c27.64-.06,56.26,9.33,82.41,17,60.56,17.83,121.41,44.66,185.26,46.9,62.15,2.19,123.44,12.9,185.11,20.07,29.68,3.45,64.15,10.61,93.57,4.34,25.22-5.38,44.55-21.61,70.89-24.51"/><path class="cls-13" d="M0,608.22c48.92,2.82,82.45,23.39,123.81,46.53,17.74,9.92,36.26,17.94,56.32,21.89,43.76,8.6,81.85-11.31,121.46-28.73,30-13.17,59.62-27,89.66-40,23.56-10.18,51.2-25.34,77.3-27.6,18.58-1.61,30.36,5,45.13,15,39.5,26.86,67.68,2.89,94-27.84,13.63-15.89,28.15-28.85,50.47-28.93,28.05-.11,57.32,10.3,83.64,18.58,61.41,19.31,123.45,48.65,188.64,51.15,62.81,2.41,124.63,14.07,186.88,21.89,29.48,3.7,64.81,11.66,94,4.73,24.87-5.91,42.48-23.55,68.73-26.73"/><path class="cls-14" d="M0,599.75c49,2.86,79.85,24.49,119.71,49.68,16.88,10.68,34.71,19.22,54.38,23.39,44.59,9.45,84.16-12.59,124.16-30.64,31.29-14.12,62.28-28.91,93.67-42.83,24.14-10.7,52.91-27,79.8-29.38,18.68-1.63,29.41,5,43.38,16.07,38.21,30.3,67,1.61,90.41-29.73,12.62-16.89,26.24-30.74,48.94-30.86,28.4-.15,58.11,11,84.58,19.76,62.08,20.54,125.09,52.07,191.41,54.64,63.37,2.46,125.63,15,188.35,23.4,29.3,3.9,65.35,12.47,94.26,5,24.64-6.33,40.64-25.2,67-28.55"/><path class="cls-15" d="M0,591.4c49.45,2.65,78,25,116.73,52,16.21,11.29,33.51,20.22,53,24.49,45.18,9.93,85.77-13.47,126-32,32.37-14.88,64.42-30.46,96.88-45.13,24.51-11.07,54-28.2,81.45-30.55,18.8-1.62,28.75,5,42,16.89,13.49,12.12,30.37,18.18,48.41,11.68,19.66-7.07,28.66-26.67,39.46-42.8,11.89-17.77,24.74-32,47.9-32.17,28.67-.18,58.55,11.36,85.16,20.49,62.56,21.47,126.25,54.76,193.43,57.19,63.78,2.3,126.38,15.75,189.44,24.52,29.17,4,65.72,13,94.48,5.27,24.57-6.59,39.14-26.52,65.65-29.88"/><path class="cls-16" d="M0,583.17c50.13,2.15,77,24.91,115.08,53.26,15.77,11.74,32.76,20.88,52.15,25.12,45.54,10,86.51-13.84,126.92-32.64,33.13-15.42,65.92-31.56,99.16-46.75,24.65-11.26,54.38-28.71,82.06-31,18.92-1.56,28.4,4.93,41.15,17.44s30.16,18.63,48.13,12.16c19.92-7.17,28.18-27.47,38.45-44.07,11.5-18.58,23.74-32.64,47.42-32.78,28.87-.18,58.58,11.3,85.32,20.69,62.8,22.06,126.84,56.62,194.56,58.63,64,1.89,126.87,16.16,190.1,25.18,29.12,4.15,65.85,13.15,94.59,5.39,24.65-6.66,38.07-27.45,64.91-30.64"/><path class="cls-17" d="M0,575.07c50,2.27,77.1,25,115.27,53.11,15.84,11.66,32.87,20.78,52.26,25,45.5,10,86.45-13.81,126.84-32.57,33-15.33,65.69-31.39,98.81-46.49,24.64-11.25,54.37-28.67,82-31,18.9-1.57,28.44,5,41.27,17.36,13,12.58,30.15,18.58,48.13,12.09,19.86-7.18,28.24-27.38,38.59-43.9,11.59-18.5,23.87-32.47,47.48-32.75,28.91-.34,58.66,11.15,85.39,20.63,62.92,22.32,126.16,56.54,194.06,58.86,64,2.17,127.1,15.88,190.4,24.65,29,4,65.85,13.25,94.46,5.51,24.63-6.67,38.24-27.31,65-30.55"/><path class="cls-18" d="M0,567.1c49.42,2.68,78.08,25,116.86,51.88,16.25,11.26,33.57,20.17,53,24.44,45.16,9.91,85.7-13.44,126-31.92,32.31-14.85,64.31-30.38,96.72-45,24.5-11.06,54-28.16,81.39-30.51,18.78-1.62,28.77,5,42.08,16.85,13.53,12.08,30.4,18.14,48.45,11.65,19.64-7.06,28.69-26.6,39.53-42.71,12-17.85,24.78-31.77,48-32.16,28.75-.49,58.51,11.07,85,20.6,62.51,22.46,124.33,55.93,191.84,58.77,64.08,2.69,127.46,14.67,191,22.65,29.11,3.65,65.86,13,94.44,5.29,24.57-6.57,39.22-26.45,65.71-29.82"/><path class="cls-19" d="M0,559.26c49.06,2.85,79.68,24.55,119.44,49.89,16.83,10.73,34.61,19.3,54.26,23.48C218.34,642.13,258,620,298,601.87c31.38-14.18,62.46-29,93.94-43,24.17-10.73,53-27.15,80-29.5,18.68-1.62,29.34,5,43.26,16.15,38.12,30.54,66.95,1.51,90.18-29.86,12.66-17.1,26.08-30.62,48.9-31,28.44-.53,57.87,10.95,84,20.53,61.54,22.53,121.72,55.55,188.34,58.55,64.24,2.89,128,12.74,191.9,19.57,29.35,3.14,65.87,12.09,94.63,4.68,24.63-6.35,40.51-25.32,66.83-28.67"/><path class="cls-20" d="M0,551.54c48.92,2.85,81.86,23.66,122.88,47.24C140.44,608.87,158.8,617,178.77,621c43.95,8.8,82.37-11.6,122.07-29.16,30.25-13.38,60.21-27.42,90.54-40.6,23.7-10.29,51.6-25.72,77.88-28,18.6-1.62,30.15,5,44.74,15.25,39.23,27.6,67.5,2.64,93.2-28.26,13.5-16.24,27.7-29.07,50.18-29.44,28-.47,56.81,10.78,82.49,20.41,60.08,22.54,118.41,55.36,183.74,58.22,64.5,2.83,128.76,10.19,193.07,15.56,29.76,2.49,65.87,10.75,95,3.7,24.81-6,42.08-23.91,68.33-27.14"/><path class="cls-21" d="M0,544c49,2.67,84.54,22.37,127,44,18.39,9.37,37.45,17,57.85,20.71,43.05,7.91,80-10.29,119.28-27.18,28.94-12.46,57.61-25.56,86.64-37.81,23.08-9.75,49.8-24,75.24-26.13,18.55-1.59,31.18,4.92,46.49,14.21,40.36,24.48,68.39,3.61,96.88-26.34C623.91,490.21,639,478.26,661.17,478c27.44-.33,55.42,10.58,80.51,20.27,58.23,22.5,114.51,55.3,178.21,57.8,64.87,2.54,129.66,7.1,194.47,10.77,30.29,1.71,65.88,9,95.52,2.42C1235,563.68,1253.7,547,1280,544"/><path class="cls-22" d="M0,536.5c49.34,2.38,87.65,20.78,131.78,40.37,19.3,8.57,39.15,15.57,60.07,19,42,6.88,77.45-8.86,116.07-24.91,27.5-11.44,54.74-23.49,82.33-34.73,22.35-9.11,47.68-21.9,72.14-23.92,18.58-1.54,32.42,4.78,48.46,13,41.46,21.35,69.67,4.28,101.12-24.16,40.51-36.63,84.68-23.85,131.71-5.05,56.08,22.42,110.12,55.34,171.93,57.3,65.35,2.07,130.71,3.6,196.07,5.35,30.88.83,65.89,6.92,96.15.9,25.47-5.06,45.72-20.48,72.17-23.19"/><path class="cls-23" d="M0,529.17c49.92,2,91.09,18.91,137,36.37,20.28,7.72,41,14.06,62.51,17.13,40.67,5.79,74.71-7.36,112.52-22.41,26-10.34,51.67-21.29,77.7-31.43,21.52-8.39,45.35-19.63,68.71-21.47,18.69-1.47,33.81,4.57,50.57,11.79,42.49,18.3,71.4,4.57,105.79-21.77,42.22-32.34,84.58-22,131.08-2.69C799.54,517,851.16,550.1,910.9,551.43c65.92,1.46,131.89-.24,197.81-.56,31.49-.15,65.93,4.57,96.89-.8,25.92-4.5,47.69-18.53,74.4-20.9"/><path class="cls-24" d="M0,522c50.74,1.56,94.77,16.82,142.46,32.14,21.26,6.83,42.85,12.46,65.08,15.14,39.17,4.71,71.93-5.86,108.75-19.75,43.43-16.4,91.07-43.4,137.89-46.81,18.91-1.38,35.3,4.25,52.8,10.46,43.4,15.41,73.59,4.49,110.74-19.24,96.75-61.8,189.56,54.86,288.19,56,66.56.74,133.15-4.29,199.63-6.79,32.09-1.21,66,2,97.69-2.63,26.47-3.9,49.7-16.49,76.77-18.48"/><path class="cls-25" d="M0,514.91c51.76,1.06,98.57,14.58,148.12,27.76,22.26,5.92,44.77,10.84,67.73,13.1,37.52,3.68,69.22-4.43,104.85-17,41.08-14.51,85.19-37.68,129.12-40.55,19.26-1.26,36.85,3.84,55.1,9.1,44.17,12.73,76.27,4.11,115.85-16.63,102.7-53.81,179.17,58,280,57.93,67.27,0,134.49-8.48,201.52-13.21,32.62-2.3,66.17-.59,98.53-4.53,27.06-3.29,51.69-14.39,79.2-16"/><path class="cls-26" d="M0,508c53,.57,102.41,12.26,153.82,23.37,23.24,5,46.66,9.21,70.39,11,35.79,2.76,66.58-3.19,100.93-14.23,38.75-12.46,79.27-32,120.3-34.25,19.71-1.1,38.39,3.36,57.41,7.74,44.8,10.29,79.38,3.53,121-14,45.18-19.05,84.77-16.11,128.9,5,46,22.05,89.56,55.55,142.82,54.89,68-.83,135.87-12.7,203.41-19.66,33.07-3.41,66.39-3.25,99.38-6.45C1226,518.75,1252,509.15,1280,508"/><path class="cls-27" d="M0,501.17c110.92.16,219.75,48.26,329.5,16.55,36.33-10.49,73.54-26.37,111.64-28.06,20.25-.9,39.88,2.84,59.68,6.4,45.34,8.13,82.78,2.91,126-11.45C672.2,469.56,712,470.42,755,492.2c43.54,22,84.17,55.48,135.43,54.28,68.81-1.61,137.26-16.86,205.29-26,33.41-4.49,66.64-5.83,100.19-8.31,28.35-2.09,55.48-10.2,84.06-11"/><path class="cls-28" d="M0,494.5c110.63-.72,224.37,40.6,333.69,13.08,33.95-8.55,68.1-21,103.33-22.13,20.84-.65,41.3,2.3,61.87,5.1,45.86,6.25,86.25,2.34,130.84-9,45.17-11.47,85.56-12.41,127.51,10,41.45,22.18,78.73,55,128.36,53.7,69.48-1.76,138.77-20.89,207.07-32.09,33.67-5.52,66.93-8.28,101-10.08,29-1.54,57.21-8.2,86.36-8.63"/><path class="cls-29" d="M0,488c111.2-1.43,227.58,33,337.61,9.84,31.66-6.66,63.06-16,95.59-16.6,21.43-.38,42.62,1.77,63.9,3.89,46.44,4.63,89.57,1.86,135.3-6.69,44.77-8.37,86.12-10.82,126.92,12.28C798.67,513,833,545.45,881.11,543.85c70.21-2.34,140.08-24.64,208.73-37.76A1056.15,1056.15,0,0,1,1280,488"/><path class="cls-30" d="M0,481.56c112.41-1.91,229.63,25.37,341.15,6.91,29.53-4.88,58.57-11.48,88.61-11.62,22-.1,43.84,1.27,65.76,2.79A692,692,0,0,0,634.79,475c44.23-5.77,86.77-9.47,126.44,14.27,37.52,22.46,69,54.53,115.87,52.71,70.91-2.75,141.31-28,210.24-42.87,62.5-13.47,128.71-17.83,192.66-17.55"/><path class="cls-31" d="M0,475.29c113.87-2.1,230.89,17.85,344.22,4.39a905.64,905.64,0,0,1,150-5.51,1107.34,1107.34,0,0,0,142.62-2.88c43.66-3.68,87.47-8.43,126.1,15.93,36,22.72,64.87,54.24,110.81,52.33,71.53-3,142.38-30.92,211.52-47.27,63.62-15,129.49-17.62,194.75-17"/><path class="cls-32" d="M0,469.16c115.2-1.94,231.76,10.73,346.72,2.34,97.15-7.08,194.38.25,291.69-4.34,43.17-2,88.17-7.74,125.93,17.2,34.91,23.05,61.36,53.92,106.76,52.06,72.08-3,143.28-33.26,212.57-50.81,64.57-16.36,130-17.2,196.33-16.45"/><path class="cls-33" d="M0,463.16c213.15-2.42,426.36,3.55,639.49-.64,42.81-.84,88.84-7.45,126,18,34.23,23.47,58.66,53.56,103.91,51.91,72.49-2.64,144-34.9,213.31-53.34,65.26-17.35,130.24-16.51,197.32-15.93"/><path class="cls-34" d="M0,457.3c213.33-.3,426.66.29,640,0,42.68-.06,89.4-7.61,126.23,18.27,33.94,23.85,57,53.39,102.44,51.9,72.89-2.4,144.19-35.72,213.72-54.72,65.57-17.93,130.25-15.51,197.63-15.43"/><path class="cls-35" d="M-.12,451.37c213.4-2.28,426.9,1.33,640.32.13,42.6-.24,89.64-7.66,126.36,18.28,34,24,56.63,53.07,102.22,51.9,72.9-1.87,144.05-35.95,213.42-55.16,66.07-18.3,130.08-14.07,197.8-15"/><path class="cls-36" d="M-.53,445.06c116.72-2.42,233.46,3.15,350.19,1.23,97-1.59,194,.77,291.07-.54,42.54-.57,89.91-7.84,126.54,18.16,34,24.17,56.22,52.79,101.87,51.86,72.83-1.49,143.73-36.35,212.85-55.84,66.69-18.8,129.87-12.53,198-14.36"/><path class="cls-37" d="M-1.21,438.4c117-3.35,233.88,6,350.88,2.67,97.3-2.77,194.57,1.23,291.89-1,42.5-1,90.25-8.22,126.81,17.9,34,24.26,55.68,52.5,101.35,51.75C942.43,508.54,1013,472.8,1081.78,453c34-9.8,67.42-15.43,102.87-15.72,31.84-.26,63.47,3.47,95.35,2.35"/><path class="cls-38" d="M-2.15,431.41C115.16,427.35,232.3,441,349.68,436c97.68-4.16,195.27,1.73,293-1.53,42.48-1.42,90.65-8.79,127.16,17.49,33.83,24.35,55,52.23,100.66,51.61,72.54-1,142.66-37.69,211.06-58,33.87-10,67.3-15.81,102.71-15.95,32-.11,63.64,5.14,95.73,3.85"/><path class="cls-39" d="M-3.34,424.14c116.83-4.54,233.25,13.68,350.17,7.18,99.15-5.51,198,2.19,297.24-2.35,41.79-1.91,90.66-9.18,126.86,16.36,35.5,25.06,55.7,53.38,103.58,52,72-2.12,141-39.41,208.85-59.94,33.29-10.07,66.39-15.89,101.29-15.6,32,.27,63.25,7,95.35,5.66"/><path class="cls-40" d="M-4.75,416.6c117.39-4.84,234.1,18.66,351.6,10.08,99.74-7.28,199,2.69,298.86-3.14,41.78-2.44,91.17-10.08,127.36,15.72,35.23,25.1,54.84,53.11,102.59,51.73,71.73-2.06,140.15-40.51,207.46-61.59,33.07-10.35,66.19-16.6,101-15.9,32.27.65,63.43,9.09,95.88,7.77"/><path class="cls-41" d="M-6.38,408.82c118-4.95,235.11,24.28,353.25,13.4,100.41-9.26,200,3.18,300.71-4,41.78-3,91.73-11.13,127.94,15C810.42,458.3,829.39,486,877,484.62c71.42-2.09,139.2-41.75,205.89-63.44,32.81-10.67,66-17.44,100.66-16.24,32.6,1.12,63.62,11.33,96.48,10.15"/><path class="cls-42" d="M-8.2,400.83c118.73-4.88,236.28,30.51,355.1,17.1a751.42,751.42,0,0,1,154-2c49.9,4.37,99,1.29,148.77-2.95,41.76-3.56,92.34-12.33,128.57,14.1,34.5,25.17,52.81,52.61,100.18,51.16,71.09-2.18,138.16-43.13,204.18-65.49,32.48-11,65.71-18.39,100.25-16.62,33,1.69,63.8,13.75,97.14,12.8"/><path class="cls-43" d="M-10.21,392.66C109.23,388,227.46,430,346.93,413.82c53.17-7.18,101-8,154.43-2.47C552,416.62,601.43,412.8,652,407.8c41.68-4.13,93.09-13.69,129.27,13.15,34,25.23,51.71,52.36,98.79,50.8,70.73-2.33,137-44.62,202.31-67.69,32.12-11.34,65.45-19.46,99.8-17,33.38,2.35,64,16.31,97.86,15.69"/><path class="cls-44" d="M-12.38,384.35C107.75,380.1,226.89,428.91,347,409.87c26.12-4.14,51.09-9.31,77.68-9.45,26-.14,51.4,3.3,77.21,6.52,51.47,6.43,101.31,1.61,152.6-4.19,41.62-4.71,93.83-15.14,130,12.11,13.39,10.09,23.56,23.81,37,33.79,17.88,13.26,38.19,17.43,60.26,16.64,70.34-2.55,135.82-46.23,200.32-70.06,31.7-11.71,65.15-20.61,99.28-17.49,33.83,3.09,64.17,19,98.64,18.79"/><path class="cls-45" d="M-14.7,375.9c119.82-3.69,239.18,51.67,358.86,30.72,25.93-4.54,50.77-11.17,77.21-11.74,26-.57,51.24,3.42,76.81,7.18,53.76,7.9,105.35,2.6,158.92-4.27,43.14-5.53,96.07-17,132.86,12.67,33,26.59,49.33,51,96.63,48.2,69.4-4.15,133.7-48.9,197.09-73.13,29.11-11.13,59.7-19.86,91.18-17.5,36.3,2.71,68.31,22.07,105.14,22.34"/><path class="cls-46" d="M-17.16,367.37c120.34-3,241.31,59.72,361.35,35.72,25.93-5.19,50.69-12.83,77.3-13.53,26.12-.69,51.58,4,77.21,8.29,54.73,9.14,106.69,2.86,161.19-4.89,43-6.12,96.92-18.71,133.64,11.47,32.35,26.58,48,50.83,95,47.76,69-4.51,132.33-50.73,194.86-75.77,28.7-11.5,59.3-20.94,90.59-18.09,36.87,3.35,68.51,25.05,106,25.92"/><path class="cls-47" d="M-19.73,358.76c66-1.23,129.78,15.95,193.85,29.58,54.68,11.63,114.5,23.94,170.1,11.38,25.92-5.85,50.62-14.55,77.4-15.39,26.3-.82,51.94,4.67,77.62,9.46,55.78,10.39,108,3.11,163.57-5.55,42.88-6.69,97.84-20.5,134.46,10.21,31.69,26.57,46.64,50.64,93.27,47.3,68.55-4.92,130.91-52.64,192.54-78.53,28.26-11.88,58.88-22.05,90-18.71,37.5,4,68.71,28.12,107,29.67"/><path class="cls-48" d="M-22.41,350.12c66.82-.76,131,18.31,195.53,33.44,54.67,12.82,115.35,27.05,171.14,13,25.88-6.53,50.54-16.34,77.49-17.32,26.47-1,52.34,5.36,78.05,10.66,56.87,11.72,109.47,3.38,166.05-6.22,42.69-7.24,98.81-22.37,135.3,8.9,31,26.55,45.22,50.45,91.49,46.81,68.11-5.36,129.43-54.63,190.13-81.38,27.82-12.26,58.44-23.2,89.29-19.36,38.15,4.76,68.92,31.25,107.94,33.56"/><path class="cls-49" d="M-25.17,341.46c67.66-.22,132.35,20.78,197.25,37.42,54.65,14,116.24,30.26,172.22,14.61,25.82-7.23,50.45-18.18,77.59-19.31,26.63-1.11,52.76,6.08,78.49,11.9,58,13.1,110.92,3.63,168.6-6.92,42.46-7.76,99.84-24.31,136.18,7.54C835.43,413.23,848.9,437,894.8,433c67.67-5.84,127.91-56.68,187.66-84.32,27.35-12.65,58-24.36,88.6-20,38.83,5.51,69.12,34.42,108.94,37.55"/><path class="cls-50" d="M-28,332.83c67.92.33,132.58,22.93,197.31,41,53.73,15,116.7,34,172.23,17.63,25.62-7.54,50.16-20.06,77.15-22.05,26.47-1.94,52.62,5.63,78,11.95,61.62,15.32,113.87,5.45,175.48-6.55,41.64-8.1,100.17-25.9,136.46,5.65C838,406,849.23,430,894.19,426.82c66.31-4.65,125.46-56.14,182.77-84.75,28.58-14.26,61.31-28.75,94-23.2,39.19,6.66,68.7,37.57,109.08,41.52"/><path class="cls-51" d="M-30.9,324.24c68.8.93,134,25.51,199.09,45.13,53.6,16.14,117.71,37.36,173.37,19.46,25.58-8.23,50.07-21.93,77.26-24.15,26.65-2.18,53.06,6.27,78.46,13.1s50.29,12.46,76.77,10.73c34.19-2.23,68-11,101.4-17.9,41.27-8.55,101.33-27.92,137.4,4.22,28.64,25.52,39,49.27,83.61,45.84,65.88-5.08,124-58.26,180.26-87.73,28-14.7,60.73-30.08,93.16-24,39.91,7.51,68.91,40.78,110.12,45.68"/><path class="cls-52" d="M-33.83,315.73c69.7,1.57,135.37,28.14,200.9,49.29,53.45,17.25,118.73,40.81,174.53,21.32,25.51-8.91,50-23.81,77.37-26.28,26.81-2.41,53.51,6.94,78.89,14.27,25.55,7.38,50.53,13.65,77.31,11.69,35-2.55,69.47-12,103.6-19.49,40.84-8.95,102.55-30,138.34,2.78,10.23,9.35,16.83,22,27.49,31,15.33,12.88,34.58,16,54.16,14.35,65.46-5.52,122.53-60.41,177.72-90.75,27.52-15.12,60.13-31.39,92.35-24.75,40.65,8.39,69.12,44,111.17,49.9"/><path class="cls-53" d="M-36.79,307.32c70.61,2.23,136.81,30.81,202.72,53.49,53.3,18.33,119.77,44.28,175.71,23.2,25.44-9.59,49.87-25.71,77.47-28.43,27-2.65,54,7.63,79.34,15.45,25.67,7.93,50.76,14.84,77.85,12.66,35.74-2.89,71-13.07,105.81-21.1,40.35-9.31,103.83-32,139.3,1.32,9.85,9.27,16,21.81,26.27,30.67,15,12.89,34.16,15.87,53.4,14.11,65-6,121-62.6,175.16-93.78,27-15.56,59.5-32.71,91.52-25.54,41.41,9.28,69.35,47.24,112.24,54.15"/><path class="cls-54" d="M-39.76,299c73.39,3,141.81,35.09,209.89,59.62,56.9,20.5,121.26,45.8,180,19.52,24.41-10.93,48.9-27,76.49-27.4,27.3-.43,54.29,11.3,79.77,19.5,26,8.37,50.39,13.88,77.91,10.44,34.22-4.27,67.8-13.83,101.23-21.94,39.91-9.69,104.8-33.93,139.79-.65,9.46,9,15.07,21.3,24.64,30.21,13.69,12.73,32.56,16.23,50.73,15,63.89-4.39,119.21-62.27,170.55-94.36,25.14-15.71,58.39-35.68,89.56-31,44.75,6.7,74,52,119.24,60.22"/><path class="cls-55" d="M-42.72,290.92c74.34,3.67,143.3,37.89,211.77,63.95,57,21.7,122.09,49.18,181.08,21,24.21-11.55,48.83-28.9,76.6-29.38,27.48-.48,54.83,12.25,80.27,20.91,26.25,8.94,50.56,14.92,78.49,11.18,35-4.68,69.24-14.84,103.35-23.47,39.38-10,106.2-36,140.76-2.1C838.7,362,843.8,374.15,853,383c13.39,12.74,32,16,50,14.76,63.39-4.46,118-64.6,168-97.34,24.45-16,57.71-37.07,88.62-32.05,45.55,7.4,74.36,55.36,120.34,64.63"/><path class="cls-56" d="M-45.66,283c75.28,4.38,144.8,40.7,213.64,68.26,57.15,22.87,122.93,52.55,182.2,22.52,24-12.15,48.75-30.82,76.69-31.35,27.67-.52,55.39,13.21,80.76,22.33,26.46,9.5,50.75,15.94,79.08,11.9,35.71-5.1,70.66-15.84,105.45-25,39.18-10.32,107.2-37.78,141.73-3.54,8.82,8.74,13.36,20.9,22.25,29.61,13,12.75,31.59,15.91,49.18,14.55,63-4.84,116.65-66.81,165.55-100.29,23.79-16.29,57-38.45,87.69-33.09,46.37,8.11,74.71,58.66,121.44,69"/><path class="cls-57" d="M-48.56,275.27c76.21,5.07,146.28,43.48,215.49,72.5,57.26,24,123.76,55.88,183.3,24C374,359,398.9,339,427,338.47c27.84-.56,55.94,14.17,81.24,23.72,26.67,10.06,50.92,16.95,79.65,12.62,36.44-5.5,72.07-16.82,107.53-26.5,38.56-10.51,108.68-39.76,142.69-5,8.46,8.66,12.53,20.7,21.06,29.33,12.59,12.75,31.16,15.78,48.43,14.34,62.71-5.22,115.3-69,163.09-103.22,23.13-16.56,56.32-39.78,86.77-34.1,47.16,8.8,75.06,61.89,122.52,73.34"/><path class="cls-58" d="M-51.4,267.8c79.06,5.85,151.42,48.1,222.78,79.09,54.41,23.63,119.19,55.85,176.06,24.61,23.48-12.89,48.57-34.31,76.4-36.56,27.1-2.19,56.08,13.26,80.56,23.06,25.86,10.35,51,19.72,79.1,16,39.11-5.23,77.28-18.17,115.14-28.8,38-10.68,111.59-42.65,144.87-4.93,7.74,8.77,11.24,20.64,19.81,28.79,13,12.38,32,14.81,49.26,12.62,62.69-7.94,111.63-71.5,159.53-106.94,22.4-16.57,55.33-40.27,85.24-33.69,23,5.07,43.46,26.46,61,40.7,19.52,15.89,37,30.3,61.68,36.66"/><path class="cls-59" d="M-54.18,260.6c80,6.52,152.91,50.89,224.61,83.3,54.47,24.62,120,58.88,177.05,26,23.26-13.41,48.52-36.1,76.5-38.49,27.21-2.32,56.63,14.11,81,24.28,26,10.84,51.14,20.8,79.59,16.8,39.85-5.61,78.69-19.16,117.22-30.3,37.23-10.77,113.14-44.63,145.73-6.3,7.39,8.69,10.42,20.42,18.67,28.51,12.63,12.39,31.66,14.68,48.58,12.42C977.19,368.44,1025,303.18,1071.92,267c21.82-16.83,54.64-41.5,84.4-34.61,23.33,5.41,44,28,61.5,42.84C1237.4,291.82,1255,307,1280,313.91"/><path class="cls-60" d="M-56.87,253.71c80.88,7.13,154.36,53.6,226.38,87.37,54.52,25.57,120.72,61.83,178,27.29,23-13.89,48.47-37.84,76.59-40.35,27.32-2.44,57.16,14.93,81.42,25.46,26.06,11.32,51.32,21.84,80.07,17.61,40.57-6,80.06-20.12,119.24-31.76,36.39-10.81,114.71-46.54,146.57-7.63,7.05,8.62,9.62,20.22,17.55,28.24,12.27,12.42,31.34,14.56,47.93,12.23,62.18-8.73,108.95-75.67,154.84-112.52,21.27-17.08,54-42.68,83.58-35.5,23.65,5.73,44.57,29.62,62,44.93,19.63,17.22,37.29,33.16,62.66,40.58"/><path class="cls-61" d="M-59.46,247.14c81.75,7.7,155.77,56.23,228.09,91.31,31.56,15.31,63.87,30.31,97.93,39.2,31.16,8.13,53.06,6.92,81-10.64,22.82-14.34,48.41-39.53,76.68-42.16,27.42-2.56,57.68,15.73,81.83,26.6,26.15,11.77,51.46,22.85,80.51,18.4,41.27-6.32,81.4-21.05,121.2-33.17,35.53-10.83,116.29-48.38,147.37-8.9,6.73,8.54,8.85,20,16.48,28,11.91,12.44,31,14.43,47.31,12,62-9.09,107.67-77.67,152.6-115.17,20.76-17.33,53.27-43.8,82.81-36.35,24,6,45.08,31.13,62.52,46.94,19.69,17.84,37.41,34.52,63.13,42.44"/><path class="cls-62" d="M-61.94,240.93c81.85,8.1,155.84,58,227.77,94.1,52.9,26.56,122.48,68.36,179,32.57,23.44-14.86,47.66-40.86,76.28-45.17,31.49-4.74,65.68,18.23,93.06,30.66S565,373.14,595,367.37c39.29-7.54,77.49-21.28,115.58-33.19C745.35,323.32,826,286,857.05,321.83c7.43,8.6,9.17,20.68,16.63,29.28,11.9,13.71,33,15.41,49.83,12.09,61.22-12.08,104.49-80.09,149.29-118.49,20.24-17.36,52.28-43.91,81.56-35.6,24.13,6.86,45.15,32.75,62.65,49.11,19.55,18.25,37.19,35.41,63,43.65"/><path class="cls-63" d="M-64.28,235.11C18.35,243.64,92.87,295.47,165,332.75c31.77,16.42,64.38,32.66,98.83,42.68,31.52,9.16,53.34,9.27,81-8.87,23.32-15.31,47.56-42.38,76.37-46.86,31.63-4.92,66.19,19,93.48,31.81,27.45,12.86,50.94,20.81,81.31,14.82,39.9-7.88,78.66-22.1,117.3-34.44,34-10.85,116.93-49.79,147.24-13.47,7.13,8.54,8.31,20.57,15.57,29,11.73,13.65,32.58,15.31,49.26,11.92,61-12.43,103.28-81.92,147.22-120.94,19.82-17.6,51.66-44.88,80.91-36.32,24.42,7.14,45.61,34.14,63.11,51,19.58,18.81,37.28,36.65,63.4,45.31"/><path class="cls-64" d="M-66.48,229.7c83.37,8.88,158.41,62.62,230.76,101,31.93,16.93,64.73,33.73,99.47,44.13,31.77,9.51,53.47,9.57,81.1-9.17,23.21-15.74,47.46-43.84,76.45-48.47,31.77-5.07,66.69,19.81,93.88,32.9,27.57,13.28,51,21.53,81.68,15.33,40.48-8.19,79.77-22.88,118.93-35.62,33.27-10.82,118.41-51.25,148-14.52,6.84,8.49,7.59,20.37,14.57,28.78,11.37,13.68,32.35,15.18,48.72,11.76,60.9-12.73,102.16-83.66,145.28-123.25,19.43-17.83,51.06-45.77,80.3-37,24.7,7.41,46,35.46,63.54,52.69,19.62,19.34,37.36,37.83,63.79,46.86"/><path class="cls-65" d="M-68.51,224.74C15.55,233.86,91.1,289.46,163.6,328.83c32.07,17.42,65.05,34.75,100.06,45.49,32,9.82,53.6,9.83,81.22-9.46,23.1-16.14,47.35-45.2,76.52-50,31.91-5.21,67.14,20.53,94.24,33.92,27.67,13.68,51.08,22.19,82,15.81,41-8.47,80.81-23.61,120.47-36.73,34.28-11.34,72.72-27.11,109.33-28.68,14.15-.6,30.17,1.36,39.39,13.2,6.57,8.44,6.9,20.19,13.61,28.54,11,13.73,32.16,15.07,48.26,11.63,60.78-13,101.1-85.3,143.45-125.41,19.08-18.06,50.49-46.57,79.74-37.62,25,7.63,46.48,36.69,63.95,54.32,19.66,19.82,37.42,38.94,64.15,48.29"/><path class="cls-66" d="M-70.37,220.24c84.69,9.27,160.75,66.67,233.36,107,32.19,17.86,65.34,35.69,100.6,46.74,32.16,10.08,53.73,10,81.31-9.76,23-16.5,47.24-46.46,76.6-51.36,32-5.35,67.54,21.19,94.57,34.86,27.74,14,51.12,22.78,82.28,16.25,41.54-8.72,81.78-24.28,121.9-37.76,34.54-11.6,73.42-27.84,110.4-29.45,13.93-.6,30,1.22,39,13.1,6.32,8.4,6.24,20,12.71,28.32,10.71,13.77,32,15,47.85,11.53,60.7-13.16,100.12-86.82,141.77-127.41,18.75-18.29,50-47.29,79.24-38.2,25.22,7.84,46.87,37.85,64.33,55.83,19.67,20.26,37.46,40,64.47,49.59"/><path class="cls-67" d="M-72,216.25c84.59,9.18,160.36,67.48,232.48,108.4,50.13,28.45,126.3,80.3,181.7,41,25-17.7,53.3-55,86.59-55.63,28.75-.57,58.92,21.58,83.05,34.25,26.64,14,50.69,26,81.09,20.34,44.17-8.17,86.87-25.54,129.25-39.92C758,312.52,799.2,293.9,837.82,294.46c13.27.19,27.33,2.53,35.13,14.38,5.23,7.93,5,18.42,10.56,26.22,9.87,13.92,30.09,15,45.46,12.35,61.88-10.67,102.85-90,144.12-130.88,18.31-18.12,49.57-46.93,78.42-37,25.37,8.76,46.67,38.91,64.33,57.43,19.49,20.45,37.15,40.45,64.16,50.12"/><path class="cls-68" d="M-73.48,212.79c85.08,9.06,161.33,69,233.46,110.66,50,28.85,126.76,81.94,182.19,41.8,24.87-18,53.14-56.15,86.64-56.81,28.91-.58,59.18,22.05,83.3,35,26.64,14.25,50.7,26.47,81.25,20.78,44.6-8.32,87.7-26.11,130.45-40.8C759.88,311,801.41,292,840.32,292.57c13.12.19,27.24,2.41,34.8,14.3,5,7.9,4.51,18.28,9.85,26.05,9.6,14,30,14.9,45.17,12.28,30.37-5.24,54.14-30.64,73.76-52.52,23.5-26.2,44.21-54.92,69-80C1091,194.34,1122,165.24,1151,175.3c25.58,8.89,47,39.86,64.63,58.67,19.49,20.8,37.14,41.31,64.41,51.11"/><path class="cls-69" d="M-74.7,209.88c85.49,8.81,162.22,70.37,234.3,112.6,49.83,29.2,127.14,83.36,182.58,42.47,24.82-18.31,53-57.15,86.69-57.83,29.07-.59,59.38,22.45,83.51,35.57,26.63,14.48,50.68,26.9,81.35,21.16,45-8.42,88.44-26.6,131.51-41.56,36.24-12.58,78-31.9,117.19-31.3,13,.2,27.2,2.31,34.55,14.24,4.85,7.87,4,18.15,9.2,25.89,9.36,14,30,14.82,45,12.25,30.42-5.22,54-30.9,73.34-53,23.25-26.52,43.62-55.57,68.16-81,17.93-18.55,48.78-47.82,77.83-37.71,25.78,9,47.3,40.69,64.9,59.75,19.48,21.09,37.12,42.09,64.62,51.94"/><path class="cls-70" d="M-75.68,207.55c85.82,8.4,163,71.5,235,114.22,49.67,29.48,127.42,84.5,182.86,43,24.82-18.58,52.79-58,86.74-58.69,29.23-.59,59.52,22.74,83.68,36.07,26.6,14.68,50.64,27.24,81.38,21.49,45.32-8.48,89.09-27,132.42-42.21,36.39-12.75,78.37-32.33,117.74-31.68C857,290,871.33,292,878.5,303.93c4.69,7.84,3.61,18,8.63,25.75,9.14,14.08,30,14.75,44.83,12.25,30.5-5.16,53.87-31.07,73-53.38,23-26.8,43.09-56.15,67.44-81.81,17.81-18.76,48.47-48.08,77.65-38,26,9,47.58,41.4,65.12,60.65,19.45,21.33,37.07,42.78,64.79,52.6"/><path class="cls-71" d="M-76.41,205.84C9.64,213.67,87.33,278.22,159.13,321.3c49.5,29.71,127.63,85.38,183.05,43.36C367,345.83,394.76,306,429,305.3c29.39-.59,59.6,22.94,83.81,36.46,26.55,14.82,50.57,27.47,81.35,21.75,45.59-8.48,89.62-27.38,133.16-42.75,36.49-12.88,78.59-32.65,118.12-31.94,12.79.22,27.23,2.13,34.25,14.16,4.56,7.82,3.25,17.93,8.14,25.63,9,14.14,30.09,14.71,44.8,12.28,62.18-10.27,100.36-94.15,139.65-136.17,17.74-19,48.22-48.22,77.55-38.16,26.09,9,47.82,42,65.31,61.39,19.4,21.52,37,43.38,64.9,53.07"/><path class="cls-72" d="M-76.86,204.77c86.18,7.07,164.36,73,235.92,116.33,49.32,29.86,127.72,85.95,183.12,43.56,24.92-19.06,52.35-59.16,86.8-59.84,29.55-.59,59.62,23,83.9,36.71,26.48,14.93,50.47,27.62,81.26,22,45.8-8.42,90-27.63,133.72-43.15,36.56-13,78.7-32.87,118.34-32.09,12.73.26,27.32,2.07,34.22,14.16,4.45,7.8,3,17.84,7.73,25.53,8.83,14.2,30.23,14.68,44.85,12.34,62.39-10,100-94.7,139-136.9,17.73-19.19,48-48.21,77.54-38.25,26.21,8.86,48,42.44,65.45,61.93,19.34,21.64,36.86,43.88,65,53.35"/><path class="cls-73" d="M-77,204.37c86.2,6.12,164.9,73.39,236.12,116.8,49.15,29.95,127.73,86.21,183.09,43.59,25-19.28,52.09-59.45,86.81-60.13,29.71-.58,59.57,23,84,36.85,26.37,15,50.33,27.63,81.08,22.07,45.94-8.3,90.34-27.8,134.1-43.43,36.58-13.05,78.68-33,118.38-32.09,12.7.28,27.46,2,34.28,14.17,4.37,7.79,2.71,17.77,7.41,25.45,8.74,14.26,30.43,14.67,45,12.44,62.64-9.59,99.84-95,138.64-137.36,17.79-19.41,48-48.07,77.64-38.26,26.3,8.69,48.2,42.75,65.53,62.27,19.27,21.71,36.72,44.28,65,53.42"/></svg>